<svg width="15" height="16" viewBox="0 0 15 16" fill="none" xmlns="http://www.w3.org/2000/svg">
<g clip-path="url(#clip0)">
<path d="M14.9921 7.82053C14.9921 7.1915 14.9411 6.73246 14.8306 6.25644H7.64941V9.0956H11.8646C11.7797 9.80117 11.3208 10.8637 10.3009 11.5778L10.2866 11.6728L12.5572 13.4322L12.7145 13.4479C14.1592 12.1133 14.9921 10.1497 14.9921 7.82053Z" fill="#4285F4"/>
<path d="M7.64941 15.301C9.71451 15.301 11.4482 14.621 12.7145 13.4479L10.3009 11.5777C9.65505 12.0283 8.78818 12.3428 7.64941 12.3428C5.62679 12.3428 3.91011 11.0082 3.29816 9.16362L3.20846 9.17124L0.847496 10.9989L0.81662 11.0847C2.07438 13.5839 4.65792 15.301 7.64941 15.301Z" fill="#34A853"/>
<path d="M3.29817 9.16362C3.1367 8.68759 3.04325 8.17752 3.04325 7.65051C3.04325 7.12344 3.1367 6.61342 3.28967 6.1374L3.2854 6.03602L0.894842 4.17903L0.816627 4.21624C0.298243 5.25333 0.000793457 6.41793 0.000793457 7.65051C0.000793457 8.88309 0.298243 10.0476 0.816627 11.0847L3.29817 9.16362Z" fill="#FBBC05"/>
<path d="M7.64941 2.95818C9.08563 2.95818 10.0544 3.57872 10.6069 4.09729L12.7655 1.98913C11.4397 0.756554 9.71451 0 7.64941 0C4.65792 0 2.07438 1.7171 0.81662 4.21625L3.28967 6.13741C3.91011 4.29279 5.62679 2.95818 7.64941 2.95818Z" fill="#EB4335"/>
</g>
<defs>
<clipPath id="clip0">
<rect width="15" height="15.3538" fill="white"/>
</clipPath>
</defs>
</svg>
